<?xml version="1.0" standalone="no"?>
<!DOCTYPE svg PUBLIC "-//W3C//DTD SVG 20010904//EN"
 "http://www.w3.org/TR/2001/REC-SVG-20010904/DTD/svg10.dtd">
<svg version="1.0" xmlns="http://www.w3.org/2000/svg"
 width="256.000000pt" height="256.000000pt" viewBox="0 0 256.000000 256.000000"
 preserveAspectRatio="xMidYMid meet">
<metadata>
Created by potrace 1.11, written by Peter Selinger 2001-2013
</metadata>
<g transform="translate(0.000000,256.000000) scale(0.100000,-0.100000)"
fill="#000000" stroke="none">
<path d="M360 2541 c-118 -32 -194 -84 -264 -180 -25 -35 -56 -94 -69 -130
l-22 -66 -2 -865 c-3 -810 -2 -869 16 -935 29 -113 79 -192 160 -256 62 -49
104 -69 186 -90 65 -17 132 -18 908 -19 901 0 919 1 1022 53 118 59 208 171
243 301 21 79 22 94 22 920 0 784 -1 846 -19 918 -42 178 -160 297 -340 347
-73 20 -97 21 -925 20 -775 -1 -857 -2 -916 -18z"/>
</g>
</svg>
